<?xml version="1.0" encoding="UTF-8"?>
<svg id="a" xmlns="http://www.w3.org/2000/svg" width="16" height="23" viewBox="0 0 193 285">
    <defs>
        <style>
            .b {
                fill: #f2f5f6;
            }

            .c {
                fill: #7ec014;
            }

            .d {
                fill: #9ed238;
            }
        </style>
    </defs>
    <g>
        <path class="d"
            d="M14,3c39.12,34.374,76.967,70.123,113.541,107.247l26.804,24.53c11.756,9.868,22.278,25.543,9.858,39.001-3.015,3.267-11.145,8.755-14.704,5.222-.005.774-.176,1.95-.682,2-3.965.394-35.269.672-36.992,0-.966-.377-1.319-.894-1.826-2l3.05,3.102c5.808,14.619,11.992,29.093,18.553,43.422,8.564,20.76,7.606,31.639-14.005,42.376-2.617,1.3-19.084,8.534-20.687,8.718-1.048.12-1.963-.228-2.911-.618-5.108-4.134-6.06-6.895-8.859-12.641-7.809-16.031-13.625-34.085-21.153-50.357-1.971-1.497-27.484,30.873-36.713,32.771-10.705,2.201-21.371-4.119-23.819-14.729l-.459-212.547c1.021-7.096,4.731-12.492,11.003-15.497Z" />
        <path class="c"
            d="M14,3c7.341-3.517,14.736-2.7,21.495,2.005l149.016,143.984c9.369,8.955,7.665,25.36-3.611,31.413-.825.443-6.055,2.599-6.401,2.599h-41.5c-.217,1.119.179,1.991.479,3.018,5.096,17.447,18.251,36.466,22.799,54.2,2.158,8.416,1.342,16.912-5.242,23.317-3.752,3.649-30.563,15.89-35.978,17.022-8.467,1.77-14.603.666-21.058-4.558,11.642-7.318,33.827-10.073,39.221-24.279,3.026-7.969,1.067-12.454-1.476-19.966-6.041-17.845-16.539-34.666-21.745-52.755h39.5c.374,0,5.38-1.45,6.225-1.775,11.083-4.259,15.551-18.172,8.71-28.161-7.661-11.186-28.538-27.838-38.962-38.038C88.49,74.837,51.392,38.753,14,3Z" />
        <path class="b"
            d="M26.769,42.196c7.845-1.076,12.573,3.821,13.27,11.266,2.869,30.65-2.147,65.818-.13,96.947-1.854,13.035-21.51,13.519-22.947-1.87-2.84-30.419,2.22-65.174.015-96.061.615-5.463,4.306-9.529,9.792-10.281Z" />
        <path class="b"
            d="M26.741,173.208c13.908-1.295,15.756,23.45,4.1,27.126-17.717,5.587-20.677-25.583-4.1-27.126Z" />
    </g>
</svg>