<?xml version="1.0" encoding="UTF-8"?>
<svg id="a" xmlns="http://www.w3.org/2000/svg" version="1.1" viewBox="0 0 32 32">
  <!-- Generator: Adobe Illustrator 30.0.0, SVG Export Plug-In . SVG Version: 2.1.1 Build 123)  -->
  <defs>
    <style>
      .st0 {
        fill: #eff5de;
      }

      .st1 {
        fill: #194233;
      }

      .st2 {
        fill: #d9f0a6;
      }

      .st3 {
        fill: #257f5e;
      }

      .st4 {
        fill: #fff;
      }

      .st5 {
        fill: #e1edc6;
      }

      .st6 {
        fill: #8ab0a2;
      }

      .st7 {
        fill: #eaf2d5;
      }

      .st8 {
        fill: #ddecb6;
      }
    </style>
  </defs>
  <g stroke="rgba(255,255,255,0.4)" stroke-width="1">
    <path class="st1"
      d="M18.53,12.96c.07.04,1.09-.11,1.65.1.68.25,1.15,1.14,1.29,1.19s.64-.04.91.02c.48.1.94.44,1.2.85,1.29,2.04.14,6.61-.68,8.78-.07.19-.36.62-.37.74,0,.1.56.88.63,1.22.44,2.1-1.61,3.08-3.23,3.78-1.91.82-6.9,2.27-6.87-1.25,0-.41.33-.85.17-1.21-.61-.69-1.07-1.48-1.65-2.2-.91-1.13-1.9-1.97-2.55-3.34-1.02-2.16-.14-2.7.22-4.71.14-.76.08-2.04.32-2.66.38-.96,1.4-.98,2.26-.68-.26-1.66-.69-3.32-.85-4.99-.15-1.58-.11-4.67,2-4.91,1.64-.18,2.22,1,2.35,2.43.03.37-.03.75,0,1.11.12,1.62.25,3.23.56,4.82.07.12.56-.08.76-.08.39,0,1.09.23,1.41.47.19.13.42.52.45.53h0ZM12.71,4.35c-.06.03-.11.05-.17.09-.54.31-.55.24-.79.87-1.08,2.88.93,8.07.97,11.29,0,.41-.25.93,0,1.32-.22.62-.43,1.22-.9,1.71-.22.02-.09-.04-.06-.15.05-.27.18-.51.19-.79l-.51.08c.09-.28.59-.31.67-.57.04-.14.1-.9.11-1.09,0-.48-.05-1.18-.09-1.67-.05-.64-.05-1.39-.85-1.54-.26-.05-.46,0-.68.09-.59.21-.54.55-.51,1.11-.26-.05-.17.13-.17.29-.02.52-.03,1.08-.12,1.59-.26,1.44-1.04,2.22-.54,3.77.54,1.68,1.83,2.74,2.88,4.03.46.56.99,1.56,1.45,2.05.12.12,1.2.55,1.32.55h1.32c.04.23-.04.15-.18.19-.69.21-1.59.07-2.29-.02-.37,1.19.03,2.44,1.4,2.56.72.06,1.67,0,2.37-.2.14-.04.28-.02.24-.23,1.43-.15,2.58-.81,3.82-1.47.06-.07,0-.19.02-.24.68-.03,1.2-.93,1.17-1.56-.01-.26-.27-1.18-.55-1.25-.1-.03-.66.4-.82.5-.08.05-.05.17-.06.17-.05.03-.93.37-1.02.39-.14.03-.28.05-.43.04l.88-.59c.08-.03.05-.17.06-.17.02-.01.09-.02.17-.09.03-.03.05-.06.09-.09.14-.11.24-.17.43-.34,1.16-1.09,1.68-3.27,1.94-4.85.27-1.62.79-5.81-1.85-5.39.1.17.08.32.09.51,0,.38.05.96-.26,1.19.06-.32-.04-.58-.09-.85-.03-.17-.04-.46-.09-.6-.22-.71-.79-1.52-1.58-1.62-.16-.02-.61-.03-.73.04-.2.11.16.5.17.56.08.39-.06,1.03,0,1.45-.17-.06-.16-.27-.26-.43,0-.32-.15-.57-.26-.85-.48-1.3-1.06-1.89-2.56-1.62-.08.25.06.51.08.68.07.57.25,1.3.26,1.83,0,.1.05.24-.09.22.02-.16-.13-.25-.17-.34-.73-1.42-1.05-4.94-1.19-6.61-.1-1.18.28-4.34-1.65-4.22-.34.02-.4.17-.57.25h0Z" />
    <path class="st3"
      d="M12.71,4.35c3,1.24.91,9.05,3.41,10.58.05.09.2.18.17.34.29-.44-.17-1.44-.17-2.05.99-.52,1.6.22,2.22.85.19.46.48.99.77,1.37-.06-.42.08-1.06,0-1.45,1.09-.38,1.87.98,2.13,1.83l.09-.21c.05.27.15.53.09.85.31-.23.26-.82.26-1.19,3.13,1.13.75,7.01-.09,9.3-.25.16-.45.48-.51.77-.31.32-.75.67-1.19.94.36.07,1.16-.31,1.45-.43,2.63,2.62-4.25,4.94-6.02,3.42-.94-1.31,1.37-1.38,1.67-2.05-2.74.24-5.24-3.87-6.59-5.83-1.13-2.24-.25-2.53-.15-4.53.15-.91-.77-2.39.34-2.86,1.33.32,1.74,1.9,1.63,3.12,0,.19-.06.95-.11,1.09-.08.26-.58.29-.67.57l.51-.08c.06.27-.41.91-.13.94,3.29-4.2-1.54-11.47.73-15.19.06-.04.11-.06.17-.09h0ZM18.35,15.96c.2-.2-.43-1.02-.43-.3,0,.29.33.4.43.3ZM15.1,15.79c-.15.11-.01,1.15.38,1.02.37-.12-.02-1.28-.38-1.02ZM20.64,15.88c-.07-.04-.23,0-.33-.01-.01,1.08.66.21.33.01ZM14.34,16.38c-.6.12-.01,1.48.6,1.36-.07-.23-.63-1.07-.6-1.36h0ZM18.42,16.62c-.44.07-.84.07-1.18-.23.09.76.79,1.1,1.21.32,0,0-.04-.08-.04-.08ZM20.82,16.81c-.27.09-.65.05-.94-.09.01.82,1.24.41.94.09ZM22.61,16.73s-.02.57.21.51c.33-.08.01-.73-.21-.51ZM22.87,17.49s-.48-.01-.6-.17c-.05.94.82.39.6.17Z" />
    <path class="st6"
      d="M10.07,15.1c.02.56.2,1.17.17,1.75-.1,2-.98,2.3.15,4.53.57,1.12,3.3,4.53,4.31,5.16.66.42,1.49.74,2.28.67.04.2-.03.14-.11.19-.62.4-2.37.74-1.56,1.86.43.59,1.79.49,2.44.42.04.21-.09.19-.24.23-.7.2-1.65.26-2.37.2-1.38-.12-1.77-1.37-1.4-2.56.7.1,1.6.23,2.29.02.15-.05.22.03.18-.19h-1.32c-.12,0-1.21-.43-1.32-.55-.46-.49-.99-1.49-1.45-2.05-1.05-1.29-2.34-2.35-2.88-4.03-.5-1.55.28-2.34.54-3.77.09-.51.1-1.07.12-1.59,0-.16-.09-.34.17-.29h0Z" />
    <path class="st8"
      d="M16.13,14.93c.02.27-.05.18-.16.03-1.33-2-1.36-4.85-1.64-7.15-.15-1.22-.15-3.16-1.62-3.46.17-.08.23-.23.57-.25,1.94-.13,1.55,3.04,1.65,4.22.14,1.67.47,5.19,1.19,6.61Z" />
    <path class="st6"
      d="M12.54,4.44c.29-.02.14.04.05.18-2.2,3.53,1.55,9.18.12,13.3-.24-.4.01-.91,0-1.32-.04-3.22-2.05-8.41-.97-11.29.24-.64.26-.56.79-.87h0Z" />
    <path class="st7"
      d="M21.67,15.27c0-.19.01-.34-.09-.51,2.64-.41,2.12,3.78,1.85,5.39-.26,1.57-.78,3.76-1.94,4.85l-.43.34c-.02-.2.42-.57.51-.77.7-1.56,1.1-2.79,1.34-4.5.2-1.39.75-4.64-1.26-4.8Z" />
    <path class="st0"
      d="M21.59,27.99c.3-.74.66-1.67-.26-2.13,0,0-.02-.12.06-.17.16-.11.72-.53.82-.5.28.07.54.99.55,1.25.02.62-.49,1.53-1.17,1.56Z" />
    <path class="st7" d="M18.6,14.17c-.41.15-1.37-1.79-2.47-.94-.27-1.69,2.43-.38,2.47.94Z" />
    <path class="st7"
      d="M21.25,15.02l-.09.17c-.05.03-.15-.16-.25-.26-.49-.47-.99-1.29-1.79-.94-.01-.06-.37-.45-.17-.56.12-.07.57-.06.73-.04.79.1,1.36.91,1.58,1.62h0Z" />
    <path class="st5" d="M12.12,15.45l-.68-.98c-.07-.08-.26-.25-.34-.3l-.09-.17.26-.09c.8.15.8.9.85,1.54Z" />
    <path class="st4" d="M20.91,14.93c.1.1.2.29.25.26l.09-.17c.04.13.06.43.09.6l-.09.21-.34-.9Z" />
    <path class="st4" d="M18.35,14.08c.17.18.27.43.26.09.1.28.26.54.26.85-.17-.3-.43-.59-.51-.94Z" />
    <path class="st4" d="M21.59,24.58c-.09.2-.28.04-.26.24l-.26.53c-.18.17.13-.12,0,0,.06-.29.26-.61.51-.77Z" />
    <path class="st4" d="M11.26,13.91l-.26.09.09.17c-.14-.07-.39-.02-.51-.17.23-.08.42-.13.68-.09Z" />
    <path class="st4" d="M20.99,25.43c-.08.06-.15.07-.17.09l.17-.09Z" />
    <path class="st6" d="M18.42,16.62l.04.08c-.42.78-1.12.44-1.21-.32.34.31.74.3,1.18.23Z" />
    <path class="st6" d="M14.34,16.38s.08.42.16.57c.06.13.49.75.44.79-.51.02-.86-.59-.83-1.04,0-.08.08-.48.23-.32h0Z" />
    <path class="st5" d="M15.1,15.79c.36-.25.75.91.38,1.02-.4.12-.54-.92-.38-1.02Z" />
    <path class="st6" d="M20.82,16.81c.31.32-.92.74-.94-.09.19-.02.29.16.47.17.12,0,.42-.13.47-.08Z" />
    <path class="st2" d="M18.35,15.96c-.11.1-.44,0-.43-.3,0-.72.64.1.43.3Z" />
    <path class="st6" d="M22.87,17.49c.22.22-.65.77-.6-.17.11.16.57.15.6.17Z" />
    <path class="st2" d="M20.64,15.88c.34.2-.34,1.07-.33-.01.1.01.25-.03.33.01Z" />
    <path class="st4" d="M22.61,16.73c.22-.22.54.43.21.51-.23.06-.26-.47-.21-.51Z" />
  </g>
</svg>