<svg xmlns="http://www.w3.org/2000/svg" id="a" width="96" height="96" data-name="Layer 1" viewBox="0 0 384 384"><defs><style>.b{fill:#abb8b5}.c{fill:#252122}.d{fill:#fcfcfc}.e{fill:#8e9597}.g{fill:#fdcdd1}</style></defs><path d="M258.78 286.95c1.11 4.63 3.77 8.87 5.27 13.31 2.8 8.32 5.91 18.13 7.91 26.63 7.51 31.89 9.27 60.97-32.84 56.69-26.31-2.67-29.17-18.82-60.98-9.02-18.42 5.67-49.08 20.58-57.92-8.44-6.45-21.17 1.42-50.85 5.89-72.08 12.26 18.44 43.42 14.38 55.35-2.66 5.32 2.02 11.94.36 17.57.89 14.48 18.63 50.78 19.77 57.98-5.33.54-.11 1.35.16 1.76 0Z" class="b"/><path d="M271.96 326.89c-2-8.5-5.11-18.31-7.91-26.63 14.32-14.56 31.8-25.55 52.44-16.15 37.04 16.88 21.33 74.59-21.24 70.28-10.48-1.06-22.1-9.33-14.01-20.35 7.43-10.13 17.52 1.26 26.31-4.49 7.24-4.74 9.68-17.05 2.13-22.58-14.54-10.65-29.26 10.15-37.72 19.91ZM181.47 291.39c-11.93 17.04-43.09 21.11-55.35 2.66-1.34-2.02-2.93-5.6-3.51-7.99-6.92-28.32 32.19-49.17 54.39-32.32 12.02 9.12 12.84 25.69 4.47 37.64ZM257.02 286.95c-7.21 25.09-43.5 23.96-57.98 5.33-7.68-9.89-8.89-24.84-.45-34.62 20.51-23.75 67.25-1.42 58.43 29.3Z" class="e"/><path d="M131.39 214.17c3.98-1.4 7.56-3.79 11.42-5.33 6.48-2.58 13.08-5.27 20.58-4.22-.13.22-.25.45-.38.67-8.53 14.55-24.08 23.42-40.82 23.3s-32.16-9.23-40.48-23.9c7.02 3.9 13.23-1.85 19.28-1.14 4.53.53 8.89 6.7 12.9 9.22 6.98 4.37 10.03 4.03 17.49 1.41Z" class="b"/><path d="M158.48 150.4c12.74 15.24 14.71 36.9 4.92 54.23-7.5-1.05-14.1 1.64-20.58 4.22 16.53-17.89-.08-45.69-23.43-36.54s-13.02 45.74 12.01 41.87c-7.46 2.62-10.52 2.97-17.49-1.41-4.01-2.52-8.37-8.69-12.9-9.22-6.05-.71-12.27 5.05-19.28 1.14-.4-.7-.77-1.41-1.14-2.13a47.6 47.6 0 0 1-3.86-10.73c-4.92-21.39 5.3-43.4 24.73-53.24s43-4.96 57.03 11.81Zm-14.78 5.31c0-5.42-4.35-9.81-9.71-9.81s-9.71 4.39-9.71 9.81 4.35 9.81 9.71 9.81 9.71-4.39 9.71-9.81m-37.42 19.86c0-4.08-3.27-7.39-7.31-7.39s-7.31 3.31-7.31 7.39 3.27 7.39 7.31 7.39 7.31-3.31 7.31-7.39" class="c"/><path d="M142.82 208.85c-3.86 1.54-7.44 3.93-11.42 5.33-25.03 3.87-35.43-32.69-12.01-41.87s39.96 18.65 23.43 36.54" class="d"/><ellipse cx="133.98" cy="155.71" class="d" rx="9.71" ry="9.81"/><ellipse cx="98.96" cy="175.57" class="d" rx="7.31" ry="7.39"/><path d="M300.95 202.63c-9.53 18.18-26.36 27.66-46.99 25.72-13.27-1.24-29.66-11.12-34.72-23.95 14.19.5 28.51 16.83 42.17 9.76 1.36-.7 2.34-1.75 3.51-2.66 2.41-1.88 4.58-4.74 7.03-6.21 7.54-4.52 11.25 1.12 17.95.82 4.02-.18 6.8-4.44 11.04-3.48Z" class="b"/><path d="M242.97 10.04c-3.49 13.12-7.83 25.93-10.82 39.21-6.95 30.83-10.67 64.49-10.28 96.15.02 1.5-.56 3.95.89 4.87-1.6 1.99-5.53 9.04-6.58 11.55-5.84 14.02-5.19 29.34 2.18 42.59-6.36.26-11.29 4.58-12.25 11.16-1.2 8.16 6.07 5.85 6.9 8.95.33 1.25-.9 2.92-.82 4.31.22 3.9 10.72 4.22 13.64 3.98 6.91-.58 10.39-4.44 18.46-3.54 7.22.81 12.98 7.43 18.66 7.77 2.65.15 8.18-1.39 10.76-2.44-4.26 14.74 15.62 20.35 26.78 19.51 18.66-1.41 32.05-18.54 10.09-28.85-1.21-.57-3.03-.2-3.49-.42s-5.75-7.64-5.27-8.87c15.91-.1 14.99-13.76 0-14.21 1.67-3.54 2.82-6.77 3.51-10.65 18.91-4.75 35.51-16.02 52.71-24.85.94 48.66-11.3 83-56.51 105.77-14.23 7.17-28.42 9.43-42.77 14.93-.41.16-1.22-.11-1.76 0 8.82-30.71-37.92-53.05-58.43-29.3-8.44 9.78-7.23 24.74.45 34.62-5.63-.53-12.25 1.14-17.57-.89 8.37-11.95 7.55-28.52-4.47-37.64-22.2-16.85-61.31 3.99-54.39 32.32-34.68-5.87-71.34-23.04-88.88-55.32-11.4-20.97-13.27-41.99-12.15-65.39 17.36 10.33 35.15 20.48 55.14 26.47.86 3.72 2.15 7.33 3.86 10.73-6.44-1.13-17.72-.73-15.94 8.47.97 5.03 10.59 3.9 11.41 4.92 1.05 1.3-4.07 6.31-5.27 7.09-2.14 1.39-5.1 1.71-7.93 3.97-13.98 11.2 1.02 23.72 13.73 25.22 11.2 1.32 29.84-2.64 29.34-16.77 11.41 3.92 11.53-.2 20.21-3.99 14.03-6.14 19.4 2.66 31.97 1.23 11.94-1.35 5.43-6.15 7.06-8.78.9-1.45 5.34-2.07 6.21-3.54 2.32-3.87-2.82-15.31-8.36-15.11.13-.22.26-.44.38-.67 9.79-17.33 7.83-38.99-4.92-54.23.14-47.66-6.01-95.6-21.81-140.36 36.56-13.54 69.81-13.24 106.3 0Zm-54.7 210.56c-12.3 2-8.24 14.13 4.07 13.06s11.18-15.54-4.07-13.06" style="fill:#c1c8c8"/><path d="M80.58 202.56q.54 1.08 1.14 2.13c8.32 14.68 23.73 23.78 40.48 23.9 16.74.12 32.29-8.75 40.82-23.3 5.54-.2 10.68 11.24 8.36 15.11-.88 1.46-5.31 2.09-6.21 3.54-1.64 2.63 4.88 7.42-7.06 8.78-12.57 1.43-17.94-7.37-31.97-1.23-8.67 3.79-8.8 7.91-20.21 3.99-4.7-1.61-11.45-8.18-14.72-8.72-6.08-1-18.42 10.71-20.42-3.7 1.2-.78 6.32-5.79 5.27-7.09-.83-1.02-10.44.11-11.41-4.92-1.77-9.2 9.5-9.6 15.94-8.47ZM301.83 201.75c14.99.45 15.9 14.11 0 14.21-.48 1.23 4.8 8.64 5.27 8.87-4.14 11.73-14.26.91-20.42 1.93-3.01.5-9.22 6.3-12.96 7.84-2.58 1.05-8.11 2.6-10.76 2.44-5.68-.33-11.44-6.96-18.66-7.77-8.07-.9-11.55 2.96-18.46 3.54-2.92.24-13.42-.08-13.64-3.98-.08-1.39 1.16-3.06.82-4.31-.83-3.1-8.09-.79-6.9-8.95.96-6.58 5.9-10.89 12.25-11.16.29-.01.59-.01.88 0 5.06 12.83 21.45 22.71 34.72 23.95 20.63 1.93 37.46-7.54 46.99-25.72.18-.34.74-.6.88-.89Z" class="d"/><path d="M273.72 234.58c3.75-1.53 9.95-7.34 12.96-7.84 6.16-1.02 16.28 9.8 20.42-1.93.47.23 2.29-.14 3.49.42 21.95 10.3 8.57 27.44-10.09 28.85-11.17.84-31.05-4.77-26.78-19.51ZM70.78 223.05c2 14.41 14.34 2.7 20.42 3.7 3.27.54 10.02 7.11 14.72 8.72.5 14.13-18.14 18.09-29.34 16.77-12.71-1.5-27.72-14.02-13.73-25.22 2.83-2.27 5.79-2.58 7.93-3.97M188.27 220.6c15.25-2.48 16.7 11.96 4.07 13.06s-16.38-11.05-4.07-13.06" class="g"/><path d="M305.34 191.09c-.69 3.88-1.85 7.11-3.51 10.65-.14.29-.7.55-.88.89-4.25-.96-7.03 3.31-11.04 3.48-6.7.3-10.41-5.35-17.95-.82 13.19-20.75-10.49-45.23-30.67-30.54-19.97 14.53-3.44 46.34 20.13 38.53v.89c-13.65 7.07-27.98-9.26-42.17-9.76-.29-.01-.59-.01-.88 0-7.37-13.25-8.02-28.57-2.18-42.59 1.04-2.51 4.98-9.56 6.58-11.55 29.79-36.99 91.61-9.64 82.58 40.83Zm-47.59-35.3c0-5.41-4.34-9.8-9.7-9.8s-9.7 4.39-9.7 9.8 4.34 9.8 9.7 9.8 9.7-4.39 9.7-9.8m32.55 19.77c0-4.11-3.3-7.44-7.36-7.44s-7.36 3.33-7.36 7.44 3.3 7.44 7.36 7.44 7.36-3.33 7.36-7.44" class="c"/><path d="M271.96 205.3c-2.45 1.47-4.62 4.34-7.03 6.21-1.45-.11-2.56 1.46-3.51 1.78-23.57 7.81-40.1-24.01-20.13-38.53 20.19-14.68 43.86 9.8 30.67 30.54" class="d"/><ellipse cx="248.05" cy="155.79" class="d" rx="9.7" ry="9.8"/><ellipse cx="282.94" cy="175.56" class="d" rx="7.36" ry="7.44"/><path d="M264.93 211.51c-1.18.92-2.16 1.96-3.51 2.66v-.89c.95-.32 2.07-1.88 3.51-1.78ZM358.05 166.24c-17.2 8.83-33.8 20.1-52.71 24.85 9.03-50.47-52.8-77.82-82.58-40.83-1.46-.92-.88-3.37-.89-4.87-.39-31.66 3.33-65.32 10.28-96.15 2.99-13.28 7.34-26.1 10.82-39.21 15.73 5.7 29.73 13.37 43.44 22.99 22.88-6.19 45.87-14.03 69.56-16.67 13.27-1.48 25.99-4.05 27.55 12.77 2.87 30.93-7.5 83.19-18.89 112.24-1.48 3.79-5.68 9.69-6.37 13.08-.48 2.35-.25 9.09-.2 11.78Zm-13.16-55.91c1.47 1.14 2.89-7.92 3.08-8.85 2.62-12.85 6.59-38.6 3.73-50.85-1.37-5.88-5.44-6.17-10.66-5.87-10.41.61-21.26 6.3-31.31 8.78-1.35 1.59 8.05 10.83 9.64 12.88 10.37 13.39 19.22 28.12 25.51 43.91Zm-64.38-4.22c-2.82.53-6.4 3.16-7.28 5.95-4.25 13.36 26.21 31.24 36.11 20.5 10.77-11.68-15.48-28.94-28.82-26.45ZM136.67 10.04c15.81 44.76 21.96 92.7 21.81 140.36-14.03-16.77-37.6-21.66-57.03-11.81-19.43 9.84-29.65 31.85-24.73 53.24-19.99-5.98-37.78-16.14-55.14-26.47.21-4.33 1.8-12.17 1.49-15.42-.26-2.75-4.69-10.7-5.9-14.3C7.13 105.8-2.21 60.43.46 29.09c1.43-16.73 14.57-14.17 27.59-12.72C50.8 18.9 72.91 26.3 94.89 32.23c13.47-9.32 26.44-16.5 41.77-22.18ZM71.65 52.65c-7.4-1.89-33.09-12.9-38.18-5.3-1.09 1.62-2.1 8.81-2.22 11.07-.42 7.48.92 17.99 1.87 25.6.88 7.03 2.5 13.97 3.4 20.98 4.43-5.83 7.18-13.04 11.05-19.45 7.07-11.73 15.93-20.17 23.22-30.68.52-.75 1.22-.89.86-2.22m16.48 53.48c-9.57 1.28-27.4 13.08-22.84 24.39 5.88 14.56 41.06-2.81 37.82-17.77-1.45-6.68-9.58-7.35-14.98-6.62" class="e"/><path d="M344.89 110.33c-6.29-15.79-15.14-30.52-25.51-43.91-1.59-2.06-10.99-11.3-9.64-12.88 10.05-2.48 20.9-8.16 31.31-8.78 5.22-.31 9.29-.02 10.66 5.87 2.86 12.24-1.12 38-3.73 50.85-.19.93-1.61 9.99-3.08 8.85Z" class="g"/><path d="M280.51 106.11c13.35-2.49 39.59 14.77 28.82 26.45-9.9 10.74-40.36-7.13-36.11-20.5.89-2.8 4.46-5.43 7.28-5.95Z" class="d"/><path d="M71.65 52.65c.35 1.34-.34 1.47-.86 2.22-7.29 10.51-16.15 18.95-23.22 30.68-3.86 6.41-6.62 13.62-11.05 19.45-.9-7.02-2.52-13.95-3.4-20.98-.95-7.61-2.29-18.13-1.87-25.6.13-2.26 1.14-9.44 2.22-11.07 5.09-7.6 30.78 3.41 38.18 5.3" class="g"/><path d="M88.13 106.13c5.41-.72 13.54-.05 14.98 6.62 3.24 14.95-31.94 32.33-37.82 17.77-4.57-11.31 13.27-23.11 22.84-24.39" class="d"/></svg>